<svg xmlns="http://www.w3.org/2000/svg" version="1.1" xmlns:xlink="http://www.w3.org/1999/xlink" xmlns:svgjs="http://svgjs.dev/svgjs" width="1500" height="1500" viewBox="0 0 1500 1500"><g transform="matrix(1,0,0,1,0,0)"><svg viewBox="0 0 280 280" data-background-color="#ffffff" preserveAspectRatio="xMidYMid meet" height="1500" width="1500" xmlns="http://www.w3.org/2000/svg" xmlns:xlink="http://www.w3.org/1999/xlink"><g id="tight-bounds" transform="matrix(1,0,0,1,0,0)"><svg viewBox="0 0 280 280" height="280" width="280"><g><svg viewBox="0 0 280 280" height="280" width="280"><g><svg viewBox="0 0 280 280" height="280" width="280"><g id="textblocktransform"><svg viewBox="0 0 280 280" height="280" width="280" id="textblock"><g><svg viewBox="0 0 280 280" height="280" width="280"><g transform="matrix(1,0,0,1,57.50420886156945,57.50420886156945)"><svg viewBox="0 0 164.9915822768611 164.9915822768611" height="164.9915822768611" width="164.9915822768611"><g id="icon-0"><circle r="82" cx="82.49579113843055" cy="82.49579113843055" fill="#283132" data-fill-palette-color="accent"></circle><svg xmlns="http://www.w3.org/2000/svg" xmlns:xlink="http://www.w3.org/1999/xlink" version="1.1" x="24.748737341529164" y="24.74873734152917" viewBox="2 2 60 60" style="enable-background:new 0 0 64 64;" xml:space="preserve" height="115.49410759380275" width="115.49410759380275" class="icon-xg-0" data-fill-palette-color="quaternary" id="xg-0"><path d="M58 22h-9v-7V7c0-2.757-2.243-5-5-5H20c-2.757 0-5 2.243-5 5v8 7H6c-2.206 0-4 1.794-4 4s1.794 4 4 4h52c2.206 0 4-1.794 4-4S60.206 22 58 22zM20 4h24c1.654 0 3 1.346 3 3v7H17V7C17 5.346 18.346 4 20 4zM17 16h30v6H17V16zM58 28H6c-1.103 0-2-0.897-2-2s0.897-2 2-2h10 32 10c1.103 0 2 0.897 2 2S59.103 28 58 28z" fill="#ffffff" data-fill-palette-color="quaternary"></path><path d="M22 49c4.411 0 8-3.589 8-8s-3.589-8-8-8-8 3.589-8 8S17.589 49 22 49zM22 35c3.309 0 6 2.691 6 6s-2.691 6-6 6-6-2.691-6-6S18.691 35 22 35z" fill="#ffffff" data-fill-palette-color="quaternary"></path><path d="M14 41v-1h-4c-2.757 0-5 2.243-5 5v16h2V45c0-1.654 1.346-3 3-3h4V41z" fill="#ffffff" data-fill-palette-color="quaternary"></path><path d="M52.555 55.18c-2.75 1.1-5.896 0.633-8.209-1.217l-4.018-3.215c-1.382-1.106-3.299-1.31-4.883-0.517-1.041 0.521-1.836 1.409-2.238 2.502-0.308 0.837-0.271 1.791 0.102 2.688 1.189 2.855 3.553 5.053 6.487 6.031C40.899 61.819 42.039 62 43.173 62c2.283 0 4.54-0.732 6.415-2.138l3.939-2.955c0.401-0.301 0.518-0.853 0.271-1.29C53.553 55.181 53.021 54.992 52.555 55.18zM48.388 58.262c-2.28 1.71-5.256 2.195-7.96 1.292-2.385-0.795-4.307-2.582-5.273-4.902-0.179-0.43-0.205-0.866-0.071-1.228 0.226-0.613 0.672-1.112 1.256-1.404 0.887-0.446 1.963-0.331 2.739 0.29l4.019 3.215c1.726 1.38 3.823 2.141 5.964 2.233L48.388 58.262z" fill="#ffffff" data-fill-palette-color="quaternary"></path><path d="M28.482 50.231c-1.582-0.792-3.5-0.59-4.883 0.517l-4.019 3.215c-2.314 1.851-5.459 2.316-8.209 1.217-0.468-0.189-0.998 0.001-1.243 0.438-0.246 0.437-0.13 0.989 0.271 1.29l3.939 2.955C16.214 61.269 18.47 62 20.753 62c1.134 0 2.275-0.181 3.378-0.548 2.933-0.978 5.298-3.176 6.487-6.031 0 0 0 0 0 0 0.373-0.896 0.409-1.85 0.101-2.688C30.318 51.64 29.523 50.751 28.482 50.231zM28.772 54.652L28.772 54.652c-0.967 2.321-2.889 4.107-5.273 4.902-2.703 0.903-5.679 0.419-7.96-1.292l-0.673-0.505c2.141-0.092 4.239-0.853 5.964-2.233l4.019-3.215c0.776-0.621 1.85-0.734 2.74-0.29 0.583 0.292 1.03 0.79 1.255 1.403C28.977 53.786 28.952 54.222 28.772 54.652z" fill="#ffffff" data-fill-palette-color="quaternary"></path><rect x="43" y="18" width="2" height="2" fill="#ffffff" data-fill-palette-color="quaternary"></rect><rect x="39" y="18" width="2" height="2" fill="#ffffff" data-fill-palette-color="quaternary"></rect><rect x="35" y="18" width="2" height="2" fill="#ffffff" data-fill-palette-color="quaternary"></rect><path d="M47.615 35.077l-12 5C35.243 40.232 35 40.596 35 41s0.243 0.768 0.615 0.923l12 5 0.77-1.846L38.6 41l9.785-4.077L47.615 35.077z" fill="#ffffff" data-fill-palette-color="quaternary"></path></svg></g></svg></g><g id="text-0"><path d="M38.972 87.886l-1.165 3.316-17.47 7.43-8.622-15.609 1.113-3.165 7.265 16.166zM33.093 104.614l-0.879 2.498-25.781-9.062 0.879-2.498z" fill="#336a86" data-fill-palette-color="primary"></path><path d="M71.839 50.182l-2.388 1.55-6.065-28.641 2.029-1.317 23.686 17.207-2.389 1.549-11.036-8.1-7.432 4.823zM64.917 24.518l-0.2 0.13 3.251 11.668 6.907-4.481z" fill="#336a86" data-fill-palette-color="primary"></path><path d="M137.651 26.72v0l0.311-2.34 0.239 0.008c0.984 0.924 2.104 1.654 3.36 2.189 1.256 0.542 2.508 0.834 3.755 0.878v0c1.771 0.062 3.221-0.376 4.349-1.313 1.122-0.937 1.711-2.225 1.768-3.863v0c0.032-0.915-0.141-1.768-0.518-2.559-0.371-0.797-1.006-1.616-1.907-2.457-0.894-0.835-2.131-1.748-3.71-2.739v0c-1.098-0.689-2.139-1.409-3.122-2.16-0.99-0.752-1.793-1.613-2.41-2.585-0.624-0.971-0.912-2.12-0.867-3.447v0c0.069-1.977 0.841-3.547 2.316-4.71 1.475-1.157 3.383-1.695 5.724-1.614v0c1.041 0.036 2.155 0.185 3.342 0.445 1.186 0.267 2.098 0.581 2.736 0.942v0l-0.265 2.172-0.239-0.008c-1.423-1.663-3.292-2.535-5.606-2.616v0c-1.665-0.058-3.019 0.32-4.064 1.134-1.044 0.807-1.591 1.927-1.641 3.359v0c-0.037 1.061 0.21 1.986 0.74 2.775 0.537 0.789 1.236 1.504 2.097 2.145 0.861 0.641 1.789 1.264 2.784 1.871v0c1.15 0.717 2.263 1.473 3.337 2.267 1.081 0.795 1.962 1.732 2.642 2.812 0.68 1.08 0.992 2.412 0.936 3.997v0c-0.051 1.453-0.433 2.721-1.148 3.805-0.715 1.084-1.704 1.916-2.966 2.497-1.255 0.581-2.702 0.842-4.341 0.785v0c-1.041-0.036-2.257-0.208-3.647-0.516-1.397-0.314-2.725-0.699-3.985-1.154z" fill="#336a86" data-fill-palette-color="primary"></path><path d="M206.204 49.696l-2.205-1.466 15.131-22.756 2.205 1.466z" fill="#336a86" data-fill-palette-color="primary"></path><path d="M240.724 93.663l25.418-10.034 1.919 4.861c1.014 2.568 1.263 4.771 0.747 6.609-0.52 1.846-1.749 3.152-3.687 3.917v0c-1.5 0.592-2.921 0.643-4.264 0.153-1.336-0.493-2.504-1.509-3.504-3.048v0l-0.222 0.088c0.316 1.723 0.082 3.325-0.704 4.805-0.783 1.486-1.944 2.83-3.483 4.029v0c-1.419 1.088-2.48 2.032-3.185 2.831-0.713 0.795-1.154 1.54-1.323 2.235-0.172 0.703-0.194 1.461-0.065 2.273v0l-0.223 0.088-0.588-1.491c-0.419-1.062-0.571-2.015-0.455-2.86 0.11-0.843 0.533-1.687 1.269-2.534 0.727-0.851 1.814-1.812 3.261-2.883v0c2.216-1.688 3.617-3.319 4.202-4.891 0.579-1.57 0.538-3.191-0.123-4.864v0l-0.084-0.213 0.658-0.26 0.084 0.213c1.538 3.895 4.097 5.136 7.677 3.723v0c3.537-1.396 4.585-3.922 3.142-7.576v0l-0.947-2.399-24.548 9.691z" fill="#336a86" data-fill-palette-color="primary"></path><path d="M10.342 139.988c0-1.764 1.43-3.194 3.194-3.195 1.764 0 3.194 1.43 3.195 3.195 0 1.764-1.43 3.194-3.195 3.194-1.764 0-3.194-1.43-3.194-3.194z" fill="#336a86" data-fill-palette-color="primary"></path><path d="M261.22 139.988c0-1.764 1.43-3.194 3.194-3.195 1.764 0 3.194 1.43 3.195 3.195 0 1.764-1.43 3.194-3.195 3.194-1.764 0-3.194-1.43-3.194-3.194z" fill="#336a86" data-fill-palette-color="primary"></path></g><g id="text-1"><path d="M13.19 201.152l-1.165-3.316 8.978-16.726 16.492 6.782 1.113 3.165-15.783-8.065zM7.311 184.424l-0.879-2.498 25.781-9.062 0.879 2.499z" fill="#336a86" data-fill-palette-color="primary"></path><path d="M56.963 252.718l-2.388-1.549 23.686-17.207 2.029 1.317-6.065 28.641-2.389-1.55 2.902-13.379-7.432-4.823zM77.581 235.942l-0.2-0.13-9.332 7.723 6.906 4.482z" fill="#336a86" data-fill-palette-color="primary"></path><path d="M138.543 278.857v0l0.147-2.356 0.239-0.009c1.046 0.853 2.214 1.503 3.504 1.95 1.291 0.453 2.56 0.658 3.807 0.615v0c1.771-0.062 3.187-0.599 4.247-1.612 1.054-1.013 1.552-2.339 1.495-3.977v0c-0.032-0.915-0.264-1.754-0.695-2.516-0.425-0.769-1.116-1.542-2.073-2.319-0.95-0.77-2.247-1.595-3.891-2.474v0c-1.144-0.611-2.232-1.257-3.265-1.938-1.04-0.681-1.901-1.484-2.585-2.411-0.69-0.926-1.058-2.052-1.103-3.378v0c-0.069-1.977 0.592-3.597 1.982-4.86 1.391-1.257 3.257-1.926 5.598-2.008v0c1.041-0.036 2.163 0.034 3.364 0.211 1.202 0.184 2.134 0.434 2.796 0.75v0l-0.113 2.185-0.239 0.008c-1.535-1.56-3.46-2.3-5.775-2.219v0c-1.665 0.058-2.99 0.529-3.975 1.413-0.985 0.878-1.453 2.033-1.404 3.466v0c0.037 1.061 0.347 1.967 0.932 2.717 0.591 0.75 1.338 1.414 2.241 1.994 0.903 0.58 1.872 1.137 2.907 1.672v0c1.198 0.636 2.36 1.312 3.487 2.03 1.134 0.718 2.078 1.591 2.831 2.621 0.753 1.03 1.157 2.337 1.212 3.922v0c0.051 1.453-0.243 2.745-0.881 3.876-0.638 1.131-1.566 2.03-2.785 2.697-1.212 0.666-2.637 1.028-4.275 1.085v0c-1.041 0.036-2.266-0.051-3.675-0.261-1.415-0.216-2.767-0.508-4.055-0.874z" fill="#336a86" data-fill-palette-color="primary"></path><path d="M221.336 253.037l-2.206 1.466-15.13-22.756 2.205-1.467z" fill="#336a86" data-fill-palette-color="primary"></path><path d="M266.143 196.348l-25.418-10.035 1.919-4.861c1.014-2.568 2.337-4.347 3.969-5.337 1.641-0.993 3.43-1.107 5.369-0.342v0c1.5 0.592 2.573 1.526 3.218 2.801 0.639 1.273 0.798 2.813 0.478 4.619v0l0.222 0.088c0.946-1.475 2.212-2.484 3.796-3.028 1.587-0.551 3.353-0.739 5.296-0.564v0c1.779 0.174 3.199 0.21 4.26 0.108 1.064-0.094 1.895-0.336 2.492-0.728 0.606-0.396 1.139-0.934 1.601-1.616v0l0.223 0.088-0.589 1.491c-0.419 1.062-0.96 1.862-1.622 2.399-0.656 0.54-1.542 0.868-2.657 0.985-1.112 0.125-2.562 0.084-4.351-0.123v0c-2.772-0.281-4.908-0.047-6.41 0.702-1.495 0.751-2.573 1.963-3.233 3.636v0l-0.084 0.213-0.658-0.26 0.084-0.213c1.538-3.895 0.516-6.55-3.064-7.963v0c-3.537-1.396-6.027-0.267-7.47 3.387v0l-0.946 2.399 24.547 9.69z" fill="#336a86" data-fill-palette-color="primary"></path></g></svg></g></svg></g></svg></g></svg></g><defs></defs></svg><rect width="280" height="280" fill="none" stroke="none" visibility="hidden"></rect></g></svg></g></svg>